<?xml version="1.0" encoding="utf-8"?>
<svg viewBox="86.352 108.988 269.449 315.558" xmlns="http://www.w3.org/2000/svg">
  <g transform="matrix(0.1, 0, 0, -0.1, 42.513004, 623.029724)" fill="#000000" stroke="none">
    <path d="M 1773.456 5077.266 C 1686.456 4938.266 1577.456 4822.266 1203.456 4477.266 C 810.456 4113.266 670.456 3952.266 573.456 3752.266 C 510.456 3622.266 494.456 3554.266 494.456 3417.266 C 494.456 3321.266 498.456 3292.266 518.456 3242.266 C 633.456 2944.266 978.456 2778.266 1315.456 2858.266 C 1406.456 2879.266 1543.456 2953.266 1613.456 3018.266 C 1649.456 3052.266 1678.456 3075.266 1678.456 3071.266 C 1677.456 3045.266 1646.456 2877.266 1623.456 2773.266 C 1561.456 2495.266 1446.456 2257.266 1321.456 2147.266 C 1275.456 2107.266 1178.456 2055.266 1118.456 2039.266 C 1095.456 2032.266 1324.456 2029.266 1793.456 2029.266 C 2482.456 2029.266 2501.456 2029.266 2448.456 2046.266 C 2343.456 2080.266 2277.456 2127.266 2194.456 2230.266 C 2072.456 2383.266 1959.456 2710.266 1913.456 3042.266 L 1906.456 3092.266 L 1960.456 3040.266 C 2032.456 2969.266 2054.456 2953.266 2134.456 2913.266 C 2242.456 2859.266 2315.456 2843.266 2453.456 2843.266 C 2591.456 2843.266 2661.456 2859.266 2778.456 2915.266 C 2876.456 2963.266 3001.456 3084.266 3047.456 3174.266 C 3174.456 3428.266 3095.456 3730.266 2814.456 4065.266 C 2728.456 4167.266 2570.456 4323.266 2298.456 4574.266 C 2025.456 4826.266 1951.456 4906.266 1815.456 5102.266 C 1802.456 5120.266 1800.456 5119.266 1773.456 5077.266 Z"/>
  </g>
</svg>